<svg width="1985" height="1076" viewBox="0 0 1985 1076" fill="none" xmlns="http://www.w3.org/2000/svg">
<g clip-path="url(#clip0_52_96)">
<path d="M1985 0H0V1076H1985V0Z" fill="#BF3DFD"/>
<path d="M602.944 949.301C467.343 919.98 325.788 905.992 186.962 923.208C123.442 930.874 60.7906 945.535 0 968.131V1076H1046.84C903.051 1031.35 760.503 984.405 615.598 951.991C611.38 951.049 607.162 950.242 602.944 949.301Z" fill="#C63BFD"/>
<path d="M1985 0H0V968.131C60.7906 945.535 123.442 930.74 186.962 923.074C325.788 905.992 467.343 919.846 602.944 949.167C607.162 950.108 611.38 951.05 615.598 951.857C760.503 984.137 903.051 1031.21 1046.84 1075.87H1985V0Z" fill="#CE3AFE"/>
<path d="M593.515 781.445C597.485 782.521 601.455 783.732 605.301 784.808C848.712 855.42 1087.53 964.365 1341.61 1022.33C1557.73 1071.56 1775.21 1061.61 1985 1008.62V0H0V773.241C64.8847 749.569 132.127 735.984 199.865 731.68C332.984 722.803 466.103 745.399 593.515 781.445Z" fill="#D538FE"/>
<path d="M0 0V577.543C68.9787 552.795 140.811 540.825 212.643 540.287C340.179 539.211 464.738 570.818 583.962 613.589C587.684 614.934 591.282 616.279 595.004 617.624C822.783 701.014 1048.7 814.129 1292.73 875.999C1524.36 934.775 1759.58 922.267 1984.88 859.052V0H0Z" fill="#DD37FF"/>
<path d="M225.546 348.893C347.375 356.963 463.622 396.237 574.533 445.867C578.007 447.347 581.357 448.961 584.831 450.44C796.978 546.742 1009.99 663.623 1243.97 729.797C1490.61 799.468 1744.44 784.673 1985 709.891V0H0V380.904C73.1969 354.542 149.619 343.916 225.546 348.893Z" fill="#E535FF"/>
<path d="M1985 0H0V183.324C77.2909 155.213 158.428 146.336 238.448 157.5C354.571 173.774 462.381 221.656 565.105 278.012C568.33 279.76 571.432 281.509 574.658 283.257C771.173 392.337 971.285 513.117 1195.34 583.461C1456.49 665.506 1729.8 649.366 1985.12 561.134V0H1985Z" fill="#F036FF"/>
<path d="M564.36 116.074C745.243 238.065 932.454 362.209 1146.46 437.125C1405.26 527.778 1681.54 518.901 1937.86 429.997C1953.74 424.482 1969.37 418.698 1985.12 412.646V0H357.424C426.899 28.6485 492.28 68.057 555.552 110.29C558.529 112.173 561.383 114.191 564.36 116.074Z" fill="#FA36FF"/>
<path d="M1985 0H617.831C764.349 115.401 919.923 221.252 1097.7 290.789C1335.66 383.863 1593.96 391.261 1835.88 319.169C1886.49 304.105 1936.49 285.275 1985.12 263.082V0H1985Z" fill="#FF37F9"/>
<path d="M1733.77 208.206C1792.33 193.949 1849.9 174.178 1905.72 149.295C1932.65 137.325 1959.07 124.009 1985 109.618V0H798.218C876.254 56.0865 959.127 105.179 1048.95 144.453C1265.93 239.545 1506.37 263.755 1733.77 208.206Z" fill="#FF37EE"/>
<path d="M1631.79 97.378C1725.21 80.431 1816.52 47.4785 1900.76 0H1003.79C1199.44 95.495 1420.14 135.845 1631.79 97.378Z" fill="#FF38E4"/>
<g clip-path="url(#clip1_52_96)">
<path d="M62 994.889C62 995.405 62.4267 995.82 62.958 995.82H650.042C650.573 995.82 651 995.405 651 994.889C651 994.372 650.573 993.958 650.042 993.958H62.958C62.4267 993.958 62 994.372 62 994.889Z" fill="#3F3D58"/>
<path d="M416.694 657.919L437.311 664.509V635.654H418.602L416.694 657.919Z" fill="#F8A8AB"/>
<path d="M434.759 643.637C446.105 643.637 455.303 634.695 455.303 623.665C455.303 612.635 446.105 603.693 434.759 603.693C423.413 603.693 414.215 612.635 414.215 623.665C414.215 634.695 423.413 643.637 434.759 643.637Z" fill="#F8A8AB"/>
<path d="M429.526 625.23L432.36 628.572L437.48 619.853C437.48 619.853 444.016 620.182 444.016 615.463C444.016 610.744 450.014 610.611 450.014 610.611C450.014 610.611 458.507 596.196 440.917 599.991C440.917 599.991 428.713 591.868 422.652 598.809C422.652 598.809 404.048 607.919 409.369 623.774L418.216 640.123L420.22 636.421C420.22 636.421 419.005 620.886 429.526 625.214V625.23Z" fill="#2F2E43"/>
<path d="M427.369 957.387H410.512V980.638H427.369V957.387Z" fill="#F8A8AB"/>
<path d="M425.501 993.957C422.619 994.208 408.194 995.319 407.469 992.103C406.809 989.152 407.783 986.069 407.92 985.646C409.305 972.233 409.82 972.084 410.134 971.998C410.625 971.857 412.058 972.522 414.384 973.978L414.529 974.072L414.561 974.236C414.601 974.447 415.632 979.37 420.518 978.611C423.867 978.094 424.954 977.374 425.3 977.022C425.018 976.897 424.664 976.678 424.415 976.302C424.052 975.754 423.988 975.05 424.229 974.205C424.857 971.974 426.741 968.68 426.822 968.547L427.039 968.171L446.198 980.739L458.032 984.026C458.925 984.277 459.642 984.895 460.004 985.725C460.503 986.883 460.197 988.229 459.231 989.074C457.082 990.952 452.815 994.169 448.331 994.568C447.14 994.677 445.562 994.717 443.791 994.717C436.393 994.717 425.59 993.973 425.509 993.957H425.501Z" fill="#2F2E43"/>
<path d="M448.895 756.933L404.676 754.734C404.676 754.734 397.898 779.714 406.463 805.743L407.493 962.489H432.481L456.035 800.797L448.895 756.933Z" fill="#2F2E43"/>
<path d="M441.44 652.37L417.169 639.849C417.169 639.849 391.015 677.006 394.629 697.135C398.252 717.263 404.676 754.734 404.676 754.734L458.217 756.933L448.871 683.142L441.44 652.37Z" fill="#E2E3E4"/>
<path d="M439.363 957.387H422.507V980.638H439.363V957.387Z" fill="#F8A8AB"/>
<path d="M437.496 993.957C434.614 994.208 420.188 995.319 419.464 992.103C418.804 989.152 419.778 986.069 419.914 985.646C421.299 972.233 421.814 972.084 422.128 971.998C422.619 971.857 424.052 972.522 426.379 973.978L426.524 974.072L426.556 974.236C426.596 974.447 427.626 979.37 432.513 978.611C435.862 978.094 436.948 977.374 437.295 977.022C437.013 976.897 436.659 976.678 436.409 976.302C436.047 975.754 435.982 975.05 436.224 974.205C436.852 971.974 438.736 968.68 438.816 968.547L439.033 968.171L458.193 980.739L470.026 984.026C470.92 984.277 471.636 984.895 471.998 985.725C472.498 986.883 472.192 988.229 471.226 989.074C469.076 990.952 464.81 994.169 460.326 994.568C459.134 994.677 457.557 994.717 455.786 994.717C448.388 994.717 437.584 993.973 437.504 993.957H437.496Z" fill="#2F2E43"/>
<path d="M458.217 756.933L404.676 754.734C404.676 754.734 397.898 779.714 406.463 805.743L416.815 962.489H441.803L465.357 800.797L458.217 756.933Z" fill="#2F2E43"/>
<path d="M452.63 859.312C448.887 859.312 444.805 858.42 440.772 857.543C437.786 856.894 435.153 856.729 433.044 856.604C429.84 856.408 427.304 856.252 425.896 854.428C424.503 852.628 424.503 849.568 425.896 843.535C427.747 835.521 431.869 822.718 436.908 812.184C443.421 798.598 449.676 792.345 455.512 793.621C463.329 795.327 466.444 808.013 467.611 815.416C469.237 825.754 469.092 838.041 467.257 845.992C464.826 856.518 459.247 859.304 452.622 859.304H452.63V859.312ZM454.055 795.82C449.764 795.82 444.499 801.908 439.106 813.178C434.139 823.547 430.082 836.155 428.254 844.051C427.087 849.122 426.958 851.885 427.828 853.02C428.568 853.974 430.508 854.1 433.189 854.256C435.387 854.389 438.124 854.554 441.295 855.25C453.902 857.997 461.783 858.999 464.898 845.483C468.239 831.005 465.695 798.254 454.981 795.914C454.675 795.843 454.361 795.812 454.047 795.812H454.055V795.82Z" fill="#DFDFE0"/>
<path d="M503.611 956.627L383.544 957.394L364.892 949.052L375.76 841.281L386.692 841.821L499.176 847.385L503.611 956.627Z" fill="#B53DFD"/>
<path opacity="0.2" d="M383.544 957.394L364.892 949.052L375.76 841.281L386.692 841.821L383.544 957.394Z" fill="#272223"/>
<path d="M454.441 839.434C452.211 839.434 449.772 838.902 447.373 838.378C445.594 837.986 444.024 837.893 442.761 837.814C440.853 837.697 439.339 837.603 438.502 836.515C437.673 835.443 437.673 833.62 438.502 830.02C439.605 825.238 442.06 817.608 445.071 811.331C448.951 803.231 452.686 799.506 456.164 800.265C460.825 801.283 462.685 808.843 463.377 813.264C464.343 819.431 464.262 826.756 463.168 831.491C461.719 837.767 458.394 839.426 454.441 839.426V839.434ZM455.295 801.58C452.735 801.58 449.595 805.211 446.383 811.934C443.421 818.116 440.998 825.629 439.919 830.341C439.219 833.361 439.146 835.013 439.669 835.686C440.112 836.257 441.263 836.327 442.865 836.421C444.177 836.5 445.804 836.601 447.695 837.016C455.206 838.652 459.907 839.246 461.767 831.194C463.755 822.562 462.242 803.036 455.858 801.643C455.673 801.604 455.488 801.58 455.303 801.58H455.295Z" fill="#DFDFE0"/>
<path d="M484.83 897.463L413.249 897.917L402.124 892.948L408.604 828.689L415.125 829.01L482.19 832.328L484.83 897.463Z" fill="#E2E3E4"/>
<path opacity="0.2" d="M413.249 897.917L402.124 892.948L408.604 828.689L415.125 829.01L413.249 897.917Z" fill="#272223"/>
<path d="M458.627 796.063C459.827 801.791 457.629 807.027 453.733 807.755C449.837 808.482 445.707 804.421 444.515 798.692C444.008 796.407 444.089 794.044 444.749 791.79L440.007 767.443L452.26 765.557L455.633 789.755C457.154 791.602 458.176 793.762 458.627 796.063Z" fill="#F8A8AB"/>
<path d="M410.568 651.916C410.568 651.916 428.488 649.71 430.629 654.914C432.77 660.118 457.935 783.995 457.935 783.995H441.336L410.568 651.916Z" fill="#E2E3E4"/>
<path d="M286.066 678.431L268.066 684.183V658.999H284.399L286.066 678.431Z" fill="#F8A8AB"/>
<path d="M270.296 665.972C280.201 665.972 288.231 658.166 288.231 648.536C288.231 638.906 280.201 631.1 270.296 631.1C260.39 631.1 252.36 638.906 252.36 648.536C252.36 658.166 260.39 665.972 270.296 665.972Z" fill="#F8A8AB"/>
<path d="M275.222 646.806C272.22 646.72 270.247 643.77 269.08 641.077C267.913 638.385 266.713 635.294 263.928 634.183C261.65 633.275 257.633 639.418 255.838 637.783C253.962 636.077 255.79 627.319 257.778 625.746C259.766 624.173 262.487 623.868 265.047 623.751C271.294 623.469 277.581 623.962 283.707 625.206C287.499 625.973 291.395 627.132 294.132 629.792C297.594 633.173 298.479 638.268 298.729 643.034C298.986 647.91 298.696 653.012 296.257 657.277C293.818 661.542 288.714 664.688 283.82 663.601C283.329 661.018 283.828 658.365 284.021 655.735C284.206 653.114 284.013 650.281 282.363 648.191C280.713 646.102 277.195 645.272 275.279 647.127" fill="#2F2E43"/>
<path d="M297.288 652.848C299.083 651.572 301.232 650.5 303.438 650.766C305.821 651.048 307.841 652.957 308.453 655.219C309.065 657.481 308.381 659.969 306.899 661.816C305.426 663.663 303.229 664.884 300.91 665.494C299.566 665.847 298.093 665.995 296.813 665.463C294.929 664.673 293.907 662.333 294.647 660.47" fill="#2F2E43"/>
<path d="M280.125 958.678H263.268V981.929H280.125V958.678Z" fill="#F8A8AB"/>
<path d="M246.846 996C245.075 996 243.497 995.961 242.306 995.852C237.83 995.452 233.555 992.236 231.406 990.358C230.44 989.512 230.134 988.166 230.633 987.008C230.995 986.179 231.712 985.553 232.605 985.31L244.439 982.023L263.598 969.455L263.815 969.83C263.896 969.971 265.78 973.266 266.408 975.488C266.649 976.334 266.585 977.038 266.222 977.586C265.973 977.961 265.619 978.181 265.337 978.306C265.683 978.658 266.77 979.378 270.119 979.894C275.005 980.646 276.035 975.723 276.076 975.52L276.108 975.355L276.253 975.261C278.579 973.806 280.012 973.141 280.503 973.281C280.809 973.368 281.324 973.524 282.717 986.93C282.854 987.353 283.828 990.436 283.168 993.386C282.451 996.595 268.026 995.492 265.136 995.241C265.055 995.249 254.252 996 246.854 996H246.846Z" fill="#2F2E43"/>
<path d="M328.124 940.395L313.821 949.067L326.477 968.796L340.78 960.124L328.124 940.395Z" fill="#F8A8AB"/>
<path d="M309.121 992.815C307.141 992.815 305.322 992.58 304.026 992.361C302.754 992.142 301.755 991.156 301.546 989.919C301.401 989.027 301.667 988.127 302.295 987.462L310.546 978.587L319.965 958.068L320.351 958.271C320.496 958.35 323.885 960.173 325.632 961.738C326.3 962.333 326.63 962.967 326.614 963.616C326.606 964.07 326.429 964.43 326.252 964.689C326.735 964.814 328.047 964.861 331.17 963.577C335.727 961.707 333.924 956.996 333.843 956.8L333.779 956.644L333.851 956.495C335.034 954.061 335.88 952.762 336.379 952.629C336.693 952.543 337.208 952.41 345.685 963.076C346.031 963.358 348.534 965.479 349.581 968.32C350.716 971.411 337.876 977.899 335.292 979.167C335.212 979.229 321.776 988.722 316.254 991.422C314.064 992.494 311.472 992.823 309.113 992.823L309.121 992.815Z" fill="#2F2E43"/>
<path d="M292.538 764.242H245.341L241.058 806.925L259.798 964.634H283.892L274.256 873.547L313.34 955.782L334.753 941.21L304.235 864.438C304.235 864.438 315.135 797.557 306.569 780.896C298.004 764.234 292.538 764.242 292.538 764.242Z" fill="#2F2E43"/>
<path d="M316.012 766.841H241.058L263.542 672.632H296.201L316.012 766.841Z" fill="#B53DFD"/>
<path d="M222.438 670.777C221.239 665.048 223.436 659.813 227.333 659.085C231.229 658.357 235.358 662.419 236.55 668.147C237.057 670.432 236.976 672.796 236.316 675.05L241.058 699.396L228.806 701.282L225.433 677.085C223.911 675.238 222.889 673.078 222.438 670.777Z" fill="#F8A8AB"/>
<path d="M295.404 672.632H266.601L247.184 710.384L239.858 682.093L223.766 683.753C223.766 683.753 227.574 739.027 244.214 737.157C260.853 735.286 299.662 685.49 295.396 672.624H295.404V672.632Z" fill="#B53DFD"/>
<path d="M322.605 851.697C320.375 851.697 317.936 851.165 315.537 850.641C313.758 850.25 312.188 850.156 310.924 850.077C309.017 849.96 307.503 849.866 306.666 848.778C305.837 847.706 305.837 845.883 306.666 842.283C307.769 837.501 310.224 829.871 313.235 823.594C317.115 815.495 320.85 811.769 324.328 812.529C328.989 813.546 330.848 821.106 331.541 825.527C332.507 831.694 332.426 839.019 331.331 843.754C329.882 850.031 326.558 851.69 322.605 851.69V851.697ZM323.458 813.843C320.899 813.843 317.759 817.475 314.547 824.197C311.585 830.38 309.162 837.892 308.083 842.604C307.382 845.625 307.31 847.276 307.833 847.949C308.276 848.52 309.427 848.591 311.029 848.684C312.341 848.763 313.967 848.864 315.859 849.279C323.37 850.915 328.071 851.51 329.931 843.457C331.919 834.825 330.406 815.299 324.022 813.906C323.837 813.867 323.652 813.843 323.467 813.843H323.458Z" fill="#DFDFE0"/>
<path d="M353.002 909.719L281.421 910.173L270.296 905.203L276.776 840.944L283.297 841.265L350.362 844.583L353.002 909.719Z" fill="#E2E3E4"/>
<path opacity="0.2" d="M281.421 910.173L270.296 905.203L276.776 840.944L283.297 841.265L281.421 910.173Z" fill="#272223"/>
<path d="M327.564 816.199C328.763 821.928 326.566 827.163 322.67 827.891C318.773 828.619 314.644 824.557 313.452 818.828C312.945 816.543 313.026 814.18 313.686 811.926L308.944 787.579L321.196 785.693L324.569 809.891C326.091 811.738 327.113 813.898 327.564 816.199Z" fill="#F8A8AB"/>
<path d="M278.982 672.632C278.982 672.632 295.348 671.959 296.201 672.632C300.669 676.177 326.872 804.139 326.872 804.139H310.272L278.982 672.632Z" fill="#B53DFD"/>
</g>
</g>
<defs>
<clipPath id="clip0_52_96">
<rect width="1985" height="1076" fill="white"/>
</clipPath>
<clipPath id="clip1_52_96">
<rect width="589" height="400" fill="white" transform="translate(62 596)"/>
</clipPath>
</defs>
</svg>
